<svg
    xmlns="http://www.w3.org/2000/svg"
    xmlns:xlink="http://www.w3.org/1999/xlink"
    style="margin: auto; display: block"
    width="100%"
    height="100%"
    viewBox="0 0 100 100"
    preserveAspectRatio="xMidYMid"
    class="loadingSpinner"
    >
    <defs>
        <path
        id="path"
        d="M50 15A15 35 0 0 1 50 85A15 35
0 0 1 50 15"
        fill="none"
        ></path>
        <path
        id="patha"
        d="M0 0A15 35 0 0 1 0 70A15 35 0 0 1 0
0"
        fill="none"
        ></path>
    </defs>
    <g transform="rotate(0 50 50)">
        <use
        xlink:href="#path"
        stroke="#999"
        stroke-width="3"
        style="opacity: 0.4"
        ></use>
    </g>
    <g transform="rotate(60 50 50)">
        <use
        xlink:href="#path"
        stroke="#999"
        stroke-width="3"
        style="opacity: 0.4"
        ></use>
    </g>
    <g transform="rotate(120 50 50)" style="opacity: 0.4">
        <use xlink:href="#path" stroke="#999" stroke-width="3"></use>
    </g>
    <g transform="rotate(0 50 50)">
        <circle cx="50" cy="15" r="9" fill="#1f2d3e" stroke="#386fb3" stroke-width="1">
        <animateMotion dur="1s" repeatCount="indefinite" begin="0s">
            <mpath xlink:href="#patha"></mpath>
        </animateMotion>
        </circle>
    </g>
    <g transform="rotate(60 50 50)">
        <circle cx="50" cy="15" r="9" fill="#4d242b" stroke="#EE4B67" stroke-width="1">
        <animateMotion
            dur="1s"
            repeatCount="indefinite"
            begin="-0.16666666666666666s"
        >
            <mpath xlink:href="#patha"></mpath>
        </animateMotion>
        </circle>
    </g>
    <g
        transform="rotate(120 50
50)"
    >
        <circle cx="50" cy="15" r="9" fill="#513719" stroke="#FD951E" stroke-width="1">
        <animateMotion dur="1s" repeatCount="indefinite" begin="-0.3333333333333333s">
            <mpath xlink:href="#patha"></mpath>
        </animateMotion>
        </circle>
    </g>
</svg>